<?xml version="1.0" encoding="UTF-8"?>
<svg 
  xmlns="http://www.w3.org/2000/svg" 
  width="200" 
  height="200" 
  viewBox="780 -20 500 500" 
  preserveAspectRatio="xMidYMid meet">
  <circle 
    cx="1035" 
    cy="230" 
    r="229.5" 
    stroke="#fff" 
    stroke-width="9.18" 
    fill="none" />
  <path 
    fill="#f012be" 
    d="M954.54 365.07H905.81V86.43H909.74L1020.57 217.1L1130.61 86.43H1134.93V365.07H1086.2V247.56L1087.96 201.19L1074.01 222.41L1020.17 285.68L966.33 222.41L952.38 201.19L954.54 247.56Z" />
  <path 
    fill="#52b9b9" 
    d="M984.4 365.07H935.66V86.43H939.59L1050.42 217.1L1160.46 86.43H1164.78V365.07H1116.05V247.56L1117.82 201.19L1103.87 222.41L1050.03 285.68L996.19 222.41L982.24 201.19L984.4 247.56Z" />
  <path 
    fill="#fff" 
    d="M969.48 365.07H920.74V86.43H924.67L1035.5 217.1L1145.54 86.43H1149.86V365.07H1101.13V247.56L1102.9 201.19L1088.95 222.41L1035.11 285.68L981.27 222.41L967.32 201.19L969.48 247.56Z" />
</svg>
